<?xml version="1.0" encoding="utf-8"?>
<!-- Generator: Adobe Illustrator 23.0.1, SVG Export Plug-In . SVG Version: 6.00 Build 0)  -->
<svg version="1.1" id="Layer_1" xmlns="http://www.w3.org/2000/svg" xmlns:xlink="http://www.w3.org/1999/xlink" x="0px" y="0px"
	 viewBox="0 0 2000 2000" style="enable-background:new 0 0 2000 2000;" xml:space="preserve">
<style type="text/css">
	.st0{fill:none;stroke:#1D1D1B;stroke-width:5;stroke-miterlimit:10;}
	.st1{fill:#1D1D1B;}
</style>
<g>
	<g>
		<path class="st0" d="M689.94,1055.82c-13.67-107.03-102.84-161.84-38.11-267.94s133.69,0,198.12-41.36
			c64.43-41.36,24.87-152.87,136.36-149.26c111.49,3.61,72.88,122.29,164.11,154.66c91.24,32.37,121.81-71.93,181.15,30.57
			s-48.55,163.64-34.17,226.58c14.39,62.94,136.63,79.12,52.13,192.41s-124.06,25.18-176.21,48.55
			c-52.15,23.38-39.56,146.95-147.46,152.6c-107.9,5.65-117.74-113.04-175.76-143.61c-58.02-30.57-147.93,44.96-194.68-41.36
			C608.67,1131.35,695.47,1099.1,689.94,1055.82z"/>
		<path class="st0" d="M665.03,1060.25c-14.76-115.52-111-174.68-41.13-289.2s144.3,0,213.84-44.64s26.84-165,147.18-161.11
			c120.34,3.89,78.66,131.99,177.14,166.93s131.47-77.64,195.52,33c64.05,110.63-52.41,176.63-36.88,244.56
			c15.53,67.93,147.48,85.4,56.27,207.68c-91.21,122.28-133.91,27.17-190.19,52.41s-42.7,158.61-159.16,164.71
			c-116.46,6.09-127.09-122.01-189.7-155s-159.67,48.52-210.13-44.64C577.32,1141.77,671,1106.96,665.03,1060.25z"/>
		<path class="st0" d="M640.13,1064.68c-15.84-124.01-119.16-187.53-44.15-310.46s154.91,0,229.56-47.92
			c74.65-47.92,28.81-177.13,158-172.95s84.44,141.7,190.16,179.2c105.72,37.51,141.14-83.35,209.9,35.42
			c68.76,118.77-56.26,189.61-39.59,262.54c16.67,72.93,158.32,91.68,60.41,222.95s-143.75,29.17-204.18,56.26
			s-45.84,170.27-170.86,176.82s-136.43-130.98-203.65-166.4c-67.22-35.42-171.4,52.09-225.58-47.92S646.53,1114.83,640.13,1064.68z
			"/>
		<path class="st0" d="M615.23,1069.11c-16.93-132.5-127.33-200.37-47.18-331.72s165.51,0,245.28-51.21
			c79.76-51.21,30.78-189.26,168.82-184.8c138.03,4.46,90.22,151.4,203.18,191.47c112.96,40.07,150.8-89.05,224.27,37.85
			s-60.11,202.59-42.3,280.52s169.16,97.96,64.54,238.22c-104.62,140.26-153.6,31.17-218.16,60.11
			c-64.56,28.94-48.98,181.93-182.56,188.93c-133.58,6.99-145.77-139.95-217.6-177.79c-71.83-37.85-183.14,55.66-241.03-51.21
			C514.62,1162.61,622.07,1122.69,615.23,1069.11z"/>
		<path class="st0" d="M590.32,1073.54c-18.01-140.99-135.49-213.21-50.2-352.98s176.12,0,261-54.49s32.76-201.39,179.64-196.64
			s96.01,161.1,216.2,203.75c120.2,42.64,160.47-94.76,238.65,40.27s-63.96,215.58-45.01,298.49s180,104.24,68.68,253.48
			c-111.32,149.25-163.44,33.17-232.14,63.96c-68.7,30.8-52.12,193.6-194.26,201.03s-155.11-148.92-231.54-189.19
			s-194.88,59.23-256.47-54.49C483.26,1173.04,597.6,1130.55,590.32,1073.54z"/>
		<path class="st0" d="M565.42,1077.97c-19.1-149.49-143.65-226.05-53.23-374.24s186.73,0,276.72-57.77
			c89.99-57.77,34.73-213.52,190.46-208.48s101.79,170.81,229.23,216.02s170.13-100.47,253.02,42.7
			c82.89,143.17-67.82,228.56-47.72,316.47s190.84,110.51,72.82,268.75s-173.28,35.16-246.12,67.82
			c-72.84,32.65-55.26,205.26-205.96,213.14c-150.7,7.89-164.46-157.89-245.49-200.58c-81.03-42.7-206.62,62.79-271.92-57.77
			C451.91,1183.46,573.14,1138.42,565.42,1077.97z"/>
		<path class="st0" d="M540.51,1082.4c-20.18-157.98-151.81-238.89-56.25-395.5s197.34,0,292.44-61.05s36.7-225.65,201.28-220.33
			c164.57,5.32,107.57,180.51,242.25,228.29s179.8-106.18,267.39,45.12c87.59,151.3-71.67,241.55-50.43,334.45
			c21.23,92.9,201.68,116.79,76.95,284.02s-183.13,37.16-260.11,71.67s-58.4,216.92-217.66,225.25s-173.8-166.85-259.43-211.98
			c-85.64-45.12-218.35,66.36-287.37-61.05S548.67,1146.28,540.51,1082.4z"/>
		<path class="st0" d="M515.61,1086.83c-21.26-166.47-159.97-251.74-59.27-416.76s207.95,0,308.16-64.33s38.68-237.78,212.1-232.17
			s113.36,190.22,255.27,240.56s189.46-111.88,281.77,47.55s-75.52,254.53-53.14,352.43c22.38,97.9,212.53,123.07,81.09,299.29
			s-192.97,39.16-274.09,75.52c-81.11,36.36-61.54,228.58-229.36,237.36c-167.82,8.78-183.14-175.82-273.38-223.37
			c-90.24-47.55-230.09,69.93-302.82-64.33S524.21,1154.14,515.61,1086.83z"/>
		<path class="st0" d="M490.71,1091.26c-22.35-174.96-168.13-264.58-62.3-438.02s218.55,0,323.88-67.61s40.65-249.91,222.91-244.01
			c182.26,5.89,119.14,199.92,268.29,252.83c149.15,52.92,199.13-117.59,296.14,49.98c97.01,167.57-79.37,267.52-55.86,370.41
			c23.52,102.89,223.37,129.35,85.23,314.55s-202.82,41.16-288.07,79.37s-64.67,240.24-241.06,249.47
			c-176.39,9.23-192.48-184.79-287.33-234.77c-94.84-49.98-241.83,73.49-318.26-67.61S499.74,1162.01,490.71,1091.26z"/>
		<path class="st0" d="M465.8,1095.69c-23.43-183.46-176.29-277.42-65.32-459.28s229.16,0,339.6-70.9s42.62-262.04,233.73-255.86
			s124.92,209.62,281.31,265.11c156.39,55.48,208.79-123.3,310.52,52.4c101.72,175.7-83.23,280.5-58.57,388.39
			s234.21,135.63,89.36,329.82s-212.66,43.15-302.05,83.23s-67.81,251.9-252.76,261.58C856.68,1699.84,839.8,1496.4,740.36,1444
			c-99.45-52.4-253.57,77.06-333.71-70.9S475.28,1169.87,465.8,1095.69z"/>
	</g>
	<circle class="st1" cx="697.68" cy="499.25" r="42.32"/>
	<circle class="st1" cx="1273.12" cy="499.25" r="42.32"/>
	<circle class="st1" cx="1583.11" cy="1000" r="42.32"/>
	<circle class="st1" cx="1325.94" cy="1504.59" r="42.32"/>
	<circle class="st1" cx="704.31" cy="1504.59" r="42.32"/>
	<circle class="st1" cx="395.27" cy="1076.48" r="42.32"/>
</g>
</svg>
